<?xml version="1.0" encoding="iso-8859-1"?>
<!-- Uploaded to: SVG Repo, www.svgrepo.com, Generator: SVG Repo Mixer Tools -->
<svg fill="#E0E0E0" height="800px" width="800px" version="1.1" id="Layer_1" xmlns="http://www.w3.org/2000/svg" xmlns:xlink="http://www.w3.org/1999/xlink" 
	 viewBox="0 0 493.556 493.556" xml:space="preserve">
<g>
	<g>
		<path d="M140.392,50.126l-1.572,0.004H40.136c-21.26,0-40.132,17.416-40.132,38.68v100.252c0,21.264,17.304,38.556,38.564,38.556
			c21.264,0,38.556-17.288,38.556-38.556v-61.816h63.268c21.268,0,38.568-17.296,38.568-38.56
			C178.96,67.422,161.66,50.126,140.392,50.126z"/>
	</g>
</g>
<g>
	<g>
		<path d="M456.592,50.13H455h-98.672c-21.264,0-38.556,17.296-38.556,38.56c0,21.264,17.288,38.56,38.556,38.56h60.12v61.816
			c0,21.264,17.296,38.556,38.552,38.556c21.264,0,38.556-17.288,38.556-38.556V88.81C493.556,67.55,477.848,50.13,456.592,50.13z"
			/>
	</g>
</g>
<g>
	<g>
		<path d="M140.384,366.31l-1.564,0.004h-61.7v-61.82c0-21.252-17.292-38.552-38.556-38.552C17.308,265.942,0,283.238,0,304.494
			V404.75c0,21.26,18.872,38.676,40.132,38.676h100.252c21.268,0,38.568-17.288,38.568-38.556
			C178.952,383.61,161.652,366.31,140.384,366.31z"/>
	</g>
</g>
<g>
	<g>
		<path d="M455,265.942c-21.252,0-38.552,17.296-38.552,38.552v61.82h-60.12c-21.264,0-38.556,17.296-38.556,38.56
			c0,21.264,17.288,38.556,38.556,38.556h100.26c21.256,0,36.964-17.416,36.964-38.676v-100.26
			C493.552,283.238,476.264,265.942,455,265.942z"/>
	</g>
</g>
</svg>